<?xml version="1.0" standalone="no"?>
<!DOCTYPE svg PUBLIC "-//W3C//DTD SVG 20010904//EN"
 "http://www.w3.org/TR/2001/REC-SVG-20010904/DTD/svg10.dtd">
<svg version="1.0" xmlns="http://www.w3.org/2000/svg"
 width="461.000000pt" height="461.000000pt" viewBox="0 0 461.000000 461.000000"
 preserveAspectRatio="xMidYMid meet">
<metadata>
Created by potrace 1.11, written by Peter Selinger 2001-2013
</metadata>
<g transform="translate(0.000000,461.000000) scale(0.100000,-0.100000)"
fill="#000000" stroke="none">
<path d="M2302 4587 c-16 -19 -51 -118 -57 -162 -3 -22 -8 -60 -10 -85 -3 -25
-8 -61 -11 -80 -3 -19 -7 -82 -9 -140 -2 -74 -6 -104 -15 -102 -6 1 -44 5 -83
8 -39 3 -72 6 -72 7 -1 1 -25 43 -55 92 -131 217 -294 435 -325 435 -19 0 -69
-148 -80 -233 -3 -26 -10 -71 -16 -100 -16 -86 -22 -174 -21 -332 l1 -150 -36
-28 c-40 -30 -54 -29 -113 8 -19 12 -56 33 -81 47 -25 14 -142 82 -260 151
-118 68 -230 134 -249 145 -19 11 -145 84 -280 162 -135 79 -265 154 -290 168
-25 14 -63 37 -85 50 -45 29 -74 31 -92 6 -20 -28 -27 -17 97 -164 21 -25 185
-220 365 -435 180 -214 337 -401 349 -415 11 -14 77 -93 146 -175 69 -83 128
-152 133 -153 16 -8 5 -37 -32 -81 -94 -113 -175 -249 -374 -631 -186 -357
-265 -478 -452 -685 -90 -100 -151 -200 -160 -260 -4 -22 -10 -54 -14 -71 -13
-48 20 -216 61 -310 20 -46 61 -113 97 -158 34 -43 69 -92 77 -109 9 -18 32
-53 52 -79 39 -52 93 -78 150 -71 19 3 32 0 32 -7 0 -31 143 -57 189 -34 14 7
45 15 68 18 111 13 226 66 376 175 83 59 248 161 322 198 45 23 175 69 220 77
17 3 44 8 60 12 17 3 125 5 241 4 141 0 231 4 275 13 55 11 127 13 137 2 6 -5
94 -317 139 -490 41 -159 154 -284 273 -304 139 -22 295 28 486 156 104 71
263 200 321 262 l40 43 99 3 c150 4 237 39 386 158 21 17 39 28 41 26 2 -2 15
-24 29 -50 49 -85 119 -168 175 -208 31 -22 60 -38 64 -35 4 2 4 18 -1 34 -5
17 -12 54 -15 83 -3 28 -8 63 -10 77 -4 30 -14 178 -20 315 -4 72 -1 112 10
145 35 105 49 231 49 430 0 158 -6 222 -34 335 -7 28 -13 88 -15 135 -3 113
-14 226 -27 275 -5 22 -12 49 -14 59 -2 11 -17 63 -33 116 -36 113 -87 195
-206 325 -144 159 -148 163 -238 278 -40 51 -75 94 -78 97 -3 3 -43 61 -89
130 -200 301 -257 359 -429 441 -88 43 -161 71 -161 64 0 -2 -17 2 -37 9 -21
7 -65 17 -98 21 -33 4 -71 9 -85 12 -14 2 -86 6 -160 9 -79 4 -140 11 -147 18
-6 6 -29 45 -51 86 -38 72 -182 290 -219 334 -10 12 -31 38 -47 59 -29 38 -55
47 -74 24z"/>
</g>
</svg>
